<svg width="512" height="512" viewBox="0 0 512 512" fill="none" xmlns="http://www.w3.org/2000/svg">
  <rect width="512" height="512" rx="128" fill="#FACC15"/>
  <circle cx="256" cy="256" r="180" fill="white" fill-opacity="0.2"/>
  <!-- Stylized Bee Body -->
  <ellipse cx="256" cy="280" rx="80" ry="100" fill="#18181B"/>
  <!-- Stripes -->
  <path d="M185 250C185 250 210 230 256 230C302 230 327 250 327 250" stroke="#FACC15" stroke-width="20" stroke-linecap="round"/>
  <path d="M178 300C178 300 210 280 256 280C302 280 334 300 334 300" stroke="#FACC15" stroke-width="20" stroke-linecap="round"/>
  <!-- Wings -->
  <ellipse cx="186" cy="220" rx="50" ry="70" transform="rotate(-30 186 220)" fill="white" fill-opacity="0.8"/>
  <ellipse cx="326" cy="220" rx="50" ry="70" transform="rotate(30 326 220)" fill="white" fill-opacity="0.8"/>
  <!-- Eyes -->
  <circle cx="230" cy="200" r="10" fill="#18181B"/>
  <circle cx="282" cy="200" r="10" fill="#18181B"/>
  <!-- Antennae -->
  <path d="M240 180C240 180 230 150 210 140" stroke="#18181B" stroke-width="8" stroke-linecap="round"/>
  <path d="M272 180C272 180 282 150 302 140" stroke="#18181B" stroke-width="8" stroke-linecap="round"/>
  <!-- Coin -->
  <circle cx="380" cy="380" r="60" fill="#EAB308" stroke="#18181B" stroke-width="8"/>
  <text x="380" y="400" font-family="Arial" font-size="60" font-weight="bold" text-anchor="middle" fill="#18181B">$</text>
</svg>
